<?xml version="1.0" encoding="UTF-8"?>
<svg version="1.1" xmlns="http://www.w3.org/2000/svg" width="500" height="500">
<path d="M0 0 C165 0 330 0 500 0 C500 165 500 330 500 500 C335 500 170 500 0 500 C0 335 0 170 0 0 Z " fill="#000000" transform="translate(0,0)"/>
<path d="M0 0 C2.51331734 2.22674495 4.96507736 4.50734303 7.41015625 6.80859375 C8.1371875 7.44796875 8.86421875 8.08734375 9.61328125 8.74609375 C24.92604109 22.84705245 34.4831179 42.89514709 39.41015625 62.80859375 C39.85875 64.29552734 39.85875 64.29552734 40.31640625 65.8125 C45.0896652 83.46913844 43.83426058 104.16963234 39.41015625 121.80859375 C39.14332031 122.90300781 38.87648438 123.99742187 38.6015625 125.125 C30.26184886 155.33329608 9.29327691 181.11151043 -17.58984375 196.80859375 C-40.75415275 209.59929469 -69.81999499 215.88100706 -96.0546875 211.04296875 C-99.64150004 210.39276728 -99.64150004 210.39276728 -101.88660526 212.7621994 C-105.28989872 215.33854645 -107.14364878 215.3111949 -111.3768158 215.31652832 C-112.04655711 215.32276828 -112.71629843 215.32900825 -113.40633494 215.3354373 C-115.64356585 215.35135265 -117.87970497 215.33876993 -120.11694336 215.32617188 C-121.72369521 215.33159374 -123.33044209 215.33871676 -124.93717957 215.34741211 C-129.29677551 215.36564236 -133.65599266 215.35857887 -138.0155952 215.34589577 C-142.57987024 215.33576478 -147.14411296 215.34516188 -151.70838928 215.35144043 C-159.37425556 215.35871729 -167.03996768 215.34912891 -174.70581055 215.33007812 C-183.56446189 215.30831704 -192.42274488 215.31535498 -201.28138727 215.33738375 C-208.89004349 215.35554593 -216.49858891 215.35809184 -224.10725981 215.34762907 C-228.65028739 215.34139763 -233.19314195 215.34054871 -237.73615837 215.35377502 C-242.00855654 215.36534456 -246.28048077 215.35728786 -250.55282784 215.334198 C-252.11932209 215.32891644 -253.68585634 215.33041527 -255.25233459 215.33924866 C-257.39405442 215.35021073 -259.534264 215.33643541 -261.67588806 215.31652832 C-262.87325561 215.31502022 -264.07062315 215.31351212 -265.30427456 215.31195831 C-269.2923756 214.70096259 -271.45391277 213.30352836 -274.58984375 210.80859375 C-278.02164976 205.85743486 -278.04357539 201.27533347 -278.0234375 195.46484375 C-278.02867935 194.57752563 -278.0339212 193.69020752 -278.0393219 192.77600098 C-278.04572275 190.90683027 -278.04443028 189.03761918 -278.03588867 187.16845703 C-278.02736977 184.31730171 -278.05618054 181.46814568 -278.08789062 178.6171875 C-278.08950269 176.79557351 -278.088925 174.973956 -278.0859375 173.15234375 C-278.09717148 172.30530884 -278.10840546 171.45827393 -278.11997986 170.58557129 C-278.056925 165.20137049 -277.27011148 162.00831286 -273.58984375 157.80859375 C-269.98962063 155.24262496 -267.55971571 154.43649443 -263.15698242 154.46801758 C-262.09626022 154.46824417 -261.03553802 154.46847076 -259.94267273 154.46870422 C-258.80916885 154.48418808 -257.67566498 154.49967194 -256.5078125 154.515625 C-255.33849686 154.51986984 -254.16918121 154.52411469 -252.96443176 154.52848816 C-249.23516675 154.5452609 -245.50644503 154.58291183 -241.77734375 154.62109375 C-239.2467526 154.63614234 -236.71615298 154.64983044 -234.18554688 154.66210938 C-227.98679426 154.69515992 -221.78835783 154.74534605 -215.58984375 154.80859375 C-215.59428497 154.01345871 -215.5987262 153.21832367 -215.603302 152.39909363 C-215.64335875 144.90951779 -215.67381795 137.41999382 -215.69346809 129.93033886 C-215.70391 126.0797335 -215.71807654 122.22921657 -215.74072266 118.37866211 C-215.76243666 114.66339052 -215.77440931 110.94820406 -215.77959824 107.23287392 C-215.7832966 105.81467664 -215.7905185 104.39648407 -215.80130386 102.97832298 C-215.81579877 100.99365142 -215.8166605 99.0088944 -215.81689453 97.02416992 C-215.82133575 95.89387863 -215.82577698 94.76358734 -215.83035278 93.5990448 C-215.58984375 90.80859375 -215.58984375 90.80859375 -213.58984375 87.80859375 C-208.92458509 86.75891055 -206.12706646 88.46458496 -202.21484375 90.80859375 C-200.66510501 91.7960379 -199.12067005 92.79207668 -197.58984375 93.80859375 C-197.55544189 93.21135498 -197.52104004 92.61411621 -197.4855957 91.9987793 C-195.24056122 55.59441396 -182.45476284 26.3553082 -155.77734375 1.12109375 C-142.10654334 -10.80587228 -125.09266189 -19.62230041 -107.58984375 -24.19140625 C-106.46835937 -24.51044922 -106.46835937 -24.51044922 -105.32421875 -24.8359375 C-69.09330533 -34.7495142 -28.19396719 -23.85643378 0 0 Z " fill="#179F84" transform="translate(359.58984375,138.19140625)"/>
<path d="M0 0 C1.00160156 0.31195313 2.00320313 0.62390625 3.03515625 0.9453125 C25.44806615 8.44780555 41.96064936 24.82918109 52.7890625 45.3984375 C62.59348781 65.73175304 64.39665203 90.53609735 57.31591797 112.08154297 C53.67217765 122.49592132 48.80476453 131.31887806 42 140 C41.37480469 140.80824219 40.74960937 141.61648438 40.10546875 142.44921875 C27.1735236 158.04922838 6.52139187 169.52979905 -13.63525391 171.82348633 C-18.64633339 172.19753242 -23.66534653 172.14261129 -28.6875 172.125 C-30.3590918 172.13080078 -30.3590918 172.13080078 -32.06445312 172.13671875 C-33.14017578 172.13542969 -34.21589844 172.13414062 -35.32421875 172.1328125 C-36.29447998 172.13168457 -37.26474121 172.13055664 -38.2644043 172.12939453 C-40.94064965 172.00280729 -43.39217351 171.59771965 -46 171 C-46.02578125 170.05898438 -46.0515625 169.11796875 -46.078125 168.1484375 C-46.26107051 158.69063309 -46.26107051 158.69063309 -51 151 C-55.15156895 147.8667581 -58.61731156 147.64618358 -63.64453125 147.8046875 C-65.14126887 147.81165922 -66.63801587 147.81681011 -68.13476562 147.8203125 C-70.47265449 147.84089553 -72.80771829 147.87486385 -75.14477539 147.94140625 C-88.16230432 148.27155599 -88.16230432 148.27155599 -92.73168945 145.10986328 C-94.7685392 142.84242235 -96.40439753 140.59191763 -98 138 C-98.70253906 137.09507812 -99.40507812 136.19015625 -100.12890625 135.2578125 C-100.60199219 134.55398438 -101.07507813 133.85015625 -101.5625 133.125 C-102.05878906 132.40570313 -102.55507812 131.68640625 -103.06640625 130.9453125 C-104 129 -104 129 -103 126 C-101.989375 125.4225 -100.97875 124.845 -99.9375 124.25 C-98.968125 123.5075 -97.99875 122.765 -97 122 C-96.49874717 118.33142278 -96.49874717 118.33142278 -97 115 C-97.70769531 114.7215625 -98.41539062 114.443125 -99.14453125 114.15625 C-102.02584919 112.98953302 -104.87289909 111.82090411 -107.6875 110.5 C-108.64011719 110.0771875 -109.59273437 109.654375 -110.57421875 109.21875 C-114.9710879 105.19713699 -114.81090134 99.70975061 -115.20874023 94.00878906 C-115.76078199 80.50972567 -115.50396647 67.82011371 -111 55 C-110.43925781 53.39318359 -110.43925781 53.39318359 -109.8671875 51.75390625 C-101.13640968 29.0596659 -84.07079214 12.76378187 -62.4609375 2.46875 C-42.62604782 -5.94876526 -20.43077164 -6.72522562 0 0 Z " fill="#000100" transform="translate(310,146)"/>
<path d="M0 0 C0.8903595 -0.00137466 1.78071899 -0.00274933 2.69805908 -0.00416565 C3.66191025 -0.00057037 4.62576141 0.0030249 5.61882019 0.00672913 C6.64367523 0.0065831 7.66853027 0.00643707 8.72444153 0.00628662 C12.10616688 0.00698234 15.4878369 0.01475881 18.86955261 0.02259827 C21.21653208 0.02446366 23.56351194 0.02588699 25.91049194 0.02688599 C32.08362404 0.03070163 38.25673256 0.04052381 44.42985535 0.05158997 C50.73071473 0.06182456 57.03157793 0.066388 63.33244324 0.07142639 C75.69247963 0.0821469 88.05249853 0.09921192 100.41252136 0.12025452 C100.06608582 1.35509583 99.71965027 2.58993713 99.36271667 3.86219788 C98.90528634 5.49897745 98.44793366 7.13577873 97.99064636 8.77259827 C97.76264343 9.58450623 97.5346405 10.39641418 97.29972839 11.23292542 C94.05056225 22.87970915 92.94878796 34.08248065 92.41252136 46.12025452 C91.68806824 45.68712952 90.96361511 45.25400452 90.21720886 44.80775452 C89.25041199 44.25087952 88.28361511 43.69400452 87.28752136 43.12025452 C86.33619324 42.56337952 85.38486511 42.00650452 84.40470886 41.43275452 C81.14737014 40.00394798 78.92873846 39.86984143 75.41252136 40.12025452 C74.03455567 42.8761859 74.24953198 45.13805266 74.2071991 48.2223053 C74.18725388 49.50348236 74.16730865 50.78465942 74.14675903 52.10466003 C74.12977467 53.50829445 74.11289587 54.91193015 74.09611511 56.31556702 C74.07554596 57.74761049 74.0545495 59.17964789 74.03314209 60.61167908 C73.97791734 64.38292014 73.92850989 68.15421604 73.8802948 71.92555237 C73.8300827 75.77305487 73.77439512 79.62047765 73.71916199 83.46791077 C73.61157549 91.01862452 73.51013166 98.56940452 73.41252136 106.12025452 C72.43652481 106.12572296 72.43652481 106.12572296 71.44081116 106.13130188 C64.65953545 106.17316024 57.87893444 106.24252988 51.09806824 106.32777405 C48.56851453 106.35597384 46.03887288 106.37719325 43.50920105 106.39125061 C39.86974591 106.4126928 36.23134721 106.45935312 32.59220886 106.51087952 C30.89969498 106.51272247 30.89969498 106.51272247 29.17298889 106.51460266 C23.0079602 106.62921756 19.00744568 106.82052157 14.41252136 111.12025452 C12.71719289 113.93821743 12.15425748 116.0665041 12.09367371 119.33802795 C12.07380402 120.15857666 12.05393433 120.97912537 12.03346252 121.82453918 C12.01613571 123.1388089 12.01613571 123.1388089 11.99845886 124.47962952 C11.97909271 125.38400757 11.95972656 126.28838562 11.93977356 127.22016907 C11.88008305 130.1034355 11.8336345 132.98674209 11.78752136 135.87025452 C11.74933189 137.827303 11.71027959 139.78433485 11.67033386 141.74134827 C11.57439011 146.53418163 11.49032009 151.32709367 11.41252136 156.12025452 C8.24635537 156.26725508 5.08108154 156.35487558 1.91252136 156.43275452 C0.58220886 156.49559631 0.58220886 156.49559631 -0.77497864 156.55970764 C-7.33394279 156.68027684 -11.52177677 155.33298925 -16.58747864 151.12025452 C-21.0928516 146.64517705 -23.70720979 142.55465769 -23.96247864 136.18275452 C-24.32327125 131.63944017 -25.35682135 129.45186985 -28.58747864 126.12025452 C-29.7939143 122.50094753 -29.91016423 119.92794447 -29.58747864 116.12025452 C-28.09002003 113.51177822 -26.71718961 111.24996549 -24.58747864 109.12025452 C-24.48881335 106.27660597 -24.45449181 103.45654381 -24.46150208 100.61244202 C-24.45963394 99.71967056 -24.45776581 98.82689911 -24.45584106 97.90707397 C-24.451826 95.9601826 -24.44976122 94.01328647 -24.44937897 92.06639099 C-24.44597223 87.92334002 -24.42461402 83.78044722 -24.4041481 79.63745117 C-24.36610689 71.91766913 -24.33485704 64.19805102 -24.33699036 56.47816467 C-24.33777934 51.11458195 -24.31432688 45.75157113 -24.27510834 40.38813782 C-24.2646686 38.34694492 -24.26310931 36.30568584 -24.27075958 34.26448059 C-24.28042908 31.39677175 -24.25910648 28.53077766 -24.23103333 25.66322327 C-24.24123001 24.82753311 -24.2514267 23.99184296 -24.26193237 23.13082886 C-24.15159914 16.80651535 -22.2133248 12.28712459 -18.58747864 7.12025452 C-16.30622864 4.96400452 -16.30622864 4.96400452 -14.08747864 3.62025452 C-13.35529114 3.15619202 -12.62310364 2.69212952 -11.86872864 2.21400452 C-8.02529639 0.37126303 -4.22347029 -0.00505805 0 0 Z " fill="#F80000" transform="translate(70.58747863769531,186.87974548339844)"/>
<path d="M0 0 C10.01445548 -0.06969739 20.02885267 -0.12291119 30.04350185 -0.15543652 C34.69437198 -0.17105184 39.3450754 -0.19221412 43.99584961 -0.22631836 C48.48921903 -0.25905987 52.98242872 -0.27688406 57.47590828 -0.28463173 C59.18501358 -0.2901488 60.89411073 -0.30092197 62.60314751 -0.31719017 C82.60016972 -0.499865 82.60016972 -0.499865 89.75 5.1875 C95.76713863 12.70892329 97.73659702 17.62361611 97.56762695 27.37304688 C97.56835709 28.48612213 97.56908722 29.59919739 97.56983948 30.7460022 C97.56637201 34.4040904 97.52754771 38.06088579 97.48828125 41.71875 C97.47895021 44.26321721 97.47183548 46.80769343 97.46684265 49.35217285 C97.44973997 55.35162794 97.4103841 61.35053298 97.3600952 67.34976816 C97.30405908 74.18409946 97.27667961 81.0184536 97.25161803 87.85295773 C97.19946309 101.90222561 97.11161048 115.95108756 97 130 C92.26580566 130.61207768 87.70760785 131.12727294 82.92578125 131.1328125 C81.84619141 131.13410156 80.76660156 131.13539063 79.65429688 131.13671875 C78.55150391 131.13285156 77.44871094 131.12898437 76.3125 131.125 C74.6409082 131.13080078 74.6409082 131.13080078 72.93554688 131.13671875 C71.85982422 131.13542969 70.78410156 131.13414062 69.67578125 131.1328125 C68.70552002 131.13168457 67.73525879 131.13055664 66.7355957 131.12939453 C64.05935035 131.00280729 61.60782649 130.59771965 59 130 C58.97421875 129.05898438 58.9484375 128.11796875 58.921875 127.1484375 C58.73892949 117.69063309 58.73892949 117.69063309 54 110 C49.84843105 106.8667581 46.38268844 106.64618358 41.35546875 106.8046875 C39.85873113 106.81165922 38.36198413 106.81681011 36.86523438 106.8203125 C34.52734551 106.84089553 32.19228171 106.87486385 29.85522461 106.94140625 C16.83769568 107.27155599 16.83769568 107.27155599 12.26831055 104.10986328 C10.2314608 101.84242235 8.59560247 99.59191763 7 97 C6.29746094 96.09507812 5.59492188 95.19015625 4.87109375 94.2578125 C4.39800781 93.55398438 3.92492187 92.85015625 3.4375 92.125 C2.94121094 91.40570313 2.44492188 90.68640625 1.93359375 89.9453125 C1 88 1 88 2 85 C3.5159375 84.13375 3.5159375 84.13375 5.0625 83.25 C6.031875 82.5075 7.00125 81.765 8 81 C8.50125283 77.33142278 8.50125283 77.33142278 8 74 C7.29230469 73.7215625 6.58460938 73.443125 5.85546875 73.15625 C2.97415081 71.98953302 0.12710091 70.82090411 -2.6875 69.5 C-3.64011719 69.0771875 -4.59273437 68.654375 -5.57421875 68.21875 C-9.9710879 64.19713699 -9.81090134 58.70975061 -10.20874023 53.00878906 C-11.00151932 33.62298177 -8.75753128 17.51506255 0 0 Z " fill="#F80000" transform="translate(205,187)"/>
<path d="M0 0 C2.51331734 2.22674495 4.96507736 4.50734303 7.41015625 6.80859375 C8.1371875 7.44796875 8.86421875 8.08734375 9.61328125 8.74609375 C24.92604109 22.84705245 34.4831179 42.89514709 39.41015625 62.80859375 C39.70921875 63.79988281 40.00828125 64.79117188 40.31640625 65.8125 C45.0896652 83.46913844 43.83426058 104.16963234 39.41015625 121.80859375 C39.14332031 122.90300781 38.87648438 123.99742187 38.6015625 125.125 C33.23905105 144.54920813 22.45375234 160.73361795 9.41015625 175.80859375 C5.42599534 175.26493833 3.62652397 173.3739419 0.86328125 170.5546875 C0.01894531 169.70068359 -0.82539063 168.84667969 -1.6953125 167.96679688 C-2.56800781 167.06896484 -3.44070313 166.17113281 -4.33984375 165.24609375 C-5.22800781 164.34439453 -6.11617187 163.44269531 -7.03125 162.51367188 C-9.2243269 160.28522277 -11.41010419 158.05007782 -13.58984375 155.80859375 C-12.0755429 152.63626179 -10.2624043 149.91294698 -8.16259766 147.08911133 C7.18734185 126.42703883 12.37257738 104.76318013 10.09765625 79.3125 C9.66842254 76.42666978 9.10450618 73.64186072 8.41015625 70.80859375 C8.16523438 69.79023438 7.9203125 68.771875 7.66796875 67.72265625 C4.0798131 54.60842366 -2.48780351 42.88523104 -11.58984375 32.80859375 C-12.25371094 32.05191406 -12.91757812 31.29523438 -13.6015625 30.515625 C-19.75598192 23.90616533 -26.87917154 19.37412335 -34.58984375 14.80859375 C-35.275625 14.38707031 -35.96140625 13.96554688 -36.66796875 13.53125 C-54.58303549 3.4842869 -79.7494327 1.7154418 -99.328125 6.76953125 C-114.35400668 11.55621931 -126.45636478 18.67542802 -138.58984375 28.80859375 C-142.0561421 27.32205869 -144.28006411 25.35137024 -146.91796875 22.67578125 C-147.7171875 21.87011719 -148.51640625 21.06445312 -149.33984375 20.234375 C-150.57734375 18.97173828 -150.57734375 18.97173828 -151.83984375 17.68359375 C-152.6803125 16.83410156 -153.52078125 15.98460937 -154.38671875 15.109375 C-156.45900058 13.01354452 -158.52646768 10.91318662 -160.58984375 8.80859375 C-160.203125 8.36128906 -159.81640625 7.91398437 -159.41796875 7.453125 C-158.8971875 6.84855469 -158.37640625 6.24398437 -157.83984375 5.62109375 C-157.28780273 4.98131592 -156.73576172 4.34153809 -156.16699219 3.68237305 C-154.92810489 2.21047522 -153.75364151 0.68432972 -152.60546875 -0.859375 C-142.3745322 -12.69633066 -122.29832859 -20.35176035 -107.58984375 -24.19140625 C-106.8421875 -24.40410156 -106.09453125 -24.61679688 -105.32421875 -24.8359375 C-69.09330533 -34.7495142 -28.19396719 -23.85643378 0 0 Z " fill="#19BA9A" transform="translate(359.58984375,138.19140625)"/>
<path d="M0 0 C5.88965801 -0.72372916 9.8334066 1.15201158 14.64453125 4.37890625 C19.00412438 9.23012846 18.50548256 15.50360931 18.82666016 21.72265625 C20.6764073 46.02468636 34.08802203 70.03117505 51 87 C51.83144531 87.83660156 52.66289062 88.67320312 53.51953125 89.53515625 C54.74736328 90.75525391 54.74736328 90.75525391 56 92 C57.06347656 93.05960938 57.06347656 93.05960938 58.1484375 94.140625 C73.75078639 108.92179763 93.63070583 116.28092894 114 122 C111.39065844 125.09319893 109.87765137 126.82600664 105.84027195 127.62641239 C104.64328143 127.6269987 103.44629091 127.62758501 102.21302795 127.62818909 C101.20841598 127.63883067 101.20841598 127.63883067 100.18350881 127.64968723 C97.94605021 127.6672474 95.71033355 127.64917528 93.47290039 127.63110352 C91.86614695 127.63624321 90.25939915 127.64352487 88.65266418 127.65278625 C84.29298002 127.67130383 79.93390728 127.65835909 75.57424855 127.63869596 C71.00997664 127.62230815 66.44574341 127.63112266 61.88145447 127.63621521 C54.21554807 127.64073648 46.54988565 127.62486542 38.8840332 127.59692383 C30.02537127 127.56488315 21.16714963 127.5648831 12.30845648 127.5821386 C3.7830549 127.59801228 -4.74218549 127.59126398 -13.26758003 127.57420158 C-16.89386862 127.5673348 -20.52002787 127.56835975 -24.14631462 127.57574654 C-28.41873281 127.58341759 -32.69065109 127.57125675 -36.96298409 127.54389763 C-38.52947125 127.53702083 -40.09600516 127.5369083 -41.66249084 127.54411316 C-43.80422999 127.55282743 -45.94443331 127.53682159 -48.08604431 127.5146637 C-49.28341186 127.51185678 -50.4807794 127.50904985 -51.71443081 127.50615788 C-55.7009036 126.8920224 -57.86461744 125.49400687 -61 123 C-64.43180601 118.04884111 -64.45373164 113.46673972 -64.43359375 107.65625 C-64.4388356 106.76893188 -64.44407745 105.88161377 -64.44947815 104.96740723 C-64.455879 103.09823652 -64.45458653 101.22902543 -64.44604492 99.35986328 C-64.43752602 96.50870796 -64.46633679 93.65955193 -64.49804688 90.80859375 C-64.49965894 88.98697976 -64.49908125 87.16536225 -64.49609375 85.34375 C-64.50732773 84.49671509 -64.51856171 83.64968018 -64.53013611 82.77697754 C-64.46708125 77.39277674 -63.68026773 74.19971911 -60 70 C-56.39977688 67.43403121 -53.96987196 66.62790068 -49.56713867 66.65942383 C-48.50641647 66.65965042 -47.44569427 66.65987701 -46.35282898 66.66011047 C-45.2193251 66.67559433 -44.08582123 66.69107819 -42.91796875 66.70703125 C-41.74865311 66.71127609 -40.57933746 66.71552094 -39.37458801 66.71989441 C-35.645323 66.73666715 -31.91660128 66.77431808 -28.1875 66.8125 C-25.65690885 66.82754859 -23.12630923 66.84123669 -20.59570312 66.85351562 C-14.39695051 66.88656617 -8.19851408 66.9367523 -2 67 C-2.00444122 66.20486496 -2.00888245 65.40972992 -2.01345825 64.59049988 C-2.053515 57.10092404 -2.0839742 49.61140007 -2.10362434 42.12174511 C-2.11406625 38.27113975 -2.12823279 34.42062282 -2.15087891 30.57006836 C-2.17259291 26.85479677 -2.18456556 23.13961031 -2.18975449 19.42428017 C-2.19345285 18.00608289 -2.20067475 16.58789032 -2.21146011 15.16972923 C-2.22595502 13.18505767 -2.22681675 11.20030065 -2.22705078 9.21557617 C-2.231492 8.08528488 -2.23593323 6.95499359 -2.24050903 5.79045105 C-2 3 -2 3 0 0 Z " fill="#F7ADAD" transform="translate(146,226)"/>
<path d="M0 0 C1.19494374 -0.01041829 1.19494374 -0.01041829 2.41402775 -0.02104706 C5.06871209 -0.03926289 7.72249727 -0.02906817 10.37721252 -0.01878357 C12.28642951 -0.0258448 14.19564089 -0.03459067 16.10484314 -0.04489136 C21.28051247 -0.06737223 26.45587581 -0.0644486 31.63157535 -0.05556989 C35.95566474 -0.05045581 40.27969684 -0.05775599 44.60378033 -0.06504196 C54.8061408 -0.08203687 65.00835169 -0.07847921 75.21070862 -0.06175232 C85.72919435 -0.04482992 96.24726511 -0.06066823 106.76570553 -0.0929752 C115.80372003 -0.11968144 124.84160543 -0.12694433 133.87965542 -0.11846012 C139.27453354 -0.11353413 144.66916199 -0.11572898 150.06400871 -0.13624763 C155.13755124 -0.15462094 160.21049742 -0.14862564 165.28400803 -0.12404823 C167.14315431 -0.11904567 169.00234615 -0.12251569 170.86145592 -0.13519669 C188.35963299 -0.24508597 188.35963299 -0.24508597 194.80909729 5.5146637 C197.82216995 9.84595564 198.36834194 13.29504696 197.80909729 18.5146637 C196.06493355 23.19636637 193.9387389 25.72715561 189.80909729 28.5146637 C186.17142119 29.7272224 182.83507818 29.66276595 179.04779053 29.66183472 C178.24908439 29.6655114 177.45037824 29.66918809 176.62746888 29.6729762 C173.94215562 29.6840188 171.25688104 29.68785783 168.57154846 29.69166565 C166.64982988 29.69792979 164.72811252 29.70457655 162.80639648 29.71157837 C157.57906947 29.72899085 152.35175159 29.73954051 147.12440276 29.7477839 C143.85974134 29.75293284 140.59508277 29.75900858 137.33042336 29.76529503 C127.11943202 29.7843466 116.90844793 29.79857861 106.69744223 29.806907 C94.90399194 29.81668455 83.11072908 29.8430178 71.31734484 29.88340789 C62.20558708 29.91354508 53.09388312 29.92837354 43.98207647 29.93168801 C38.53802734 29.93404094 33.09417846 29.94303323 27.65018272 29.96814919 C22.529206 29.99139336 17.40856191 29.99567782 12.28754616 29.9853878 C10.40819824 29.98489147 8.52883415 29.99124062 6.64953613 30.00494385 C4.08307571 30.02261043 1.51781584 30.01558288 -1.04864502 30.00241089 C-1.79174748 30.01338013 -2.53484994 30.02434938 -3.30047065 30.03565103 C-8.39453666 29.97256067 -11.25034943 28.68966568 -15.19090271 25.5146637 C-18.705511 21.51528185 -19.56236399 17.91555347 -19.46434021 12.57325745 C-18.99736315 9.05758728 -17.51158036 7.13286412 -15.19090271 4.5146637 C-10.06488499 1.02207017 -6.23472189 -0.07010469 0 0 Z " fill="#ABABAB" transform="translate(101.19090270996094,415.48533630371094)"/>
<path d="M0 0 C4.17363333 0.51856054 6.14308614 2.75687892 9.05639648 5.65234375 C9.54638123 6.13546524 10.03636597 6.61858673 10.54119873 7.11634827 C12.15892977 8.71578144 13.76533106 10.32605757 15.37109375 11.9375 C16.49646633 13.05830924 17.62220955 14.17874644 18.74830627 15.29882812 C21.10949158 17.6510742 23.46490407 20.00892378 25.81665039 22.37060547 C28.81513031 25.38052224 31.82906924 28.37438766 34.84786892 31.36390686 C37.17912746 33.67670908 39.50088509 35.99887313 41.82008553 38.32376099 C42.92647603 39.43030384 44.03593385 40.53378932 45.1486187 41.63400269 C53.0105902 49.42026818 60.87192319 57.26605124 61.4375 68.9375 C61.34586103 76.61480899 58.42847999 83.54478722 52.99609375 89.01953125 C47.10636709 93.61284749 42.08014621 95.28978808 34.5625 95.3125 C33.28503906 95.32925781 32.00757813 95.34601563 30.69140625 95.36328125 C18.12422245 94.12651078 8.3391264 80.48302698 -0.0390625 72.05859375 C-1.0558803 71.0399047 -2.07292367 70.02144078 -3.09017944 69.00318909 C-5.7325248 66.35707413 -8.37185018 63.70796784 -11.01049805 61.0581665 C-13.71737464 58.34095442 -16.42717944 55.6266658 -19.13671875 52.91210938 C-24.42730416 47.61088503 -29.71469373 42.30648822 -35 37 C-33.52213053 33.85952737 -32.38078657 32.27828264 -29.5 30.3125 C-24.31397491 26.58533859 -19.66971682 22.34766738 -15 18 C-14.36964844 17.42378906 -13.73929687 16.84757812 -13.08984375 16.25390625 C-7.97789332 11.39813557 -4.01814628 5.7715192 0 0 Z " fill="#2B3D4F" transform="translate(390,303)"/>
<path d="M0 0 C4.17363333 0.51856054 6.14308614 2.75687892 9.05639648 5.65234375 C9.54638123 6.13546524 10.03636597 6.61858673 10.54119873 7.11634827 C12.15892977 8.71578144 13.76533106 10.32605757 15.37109375 11.9375 C16.49646633 13.05830924 17.62220955 14.17874644 18.74830627 15.29882812 C21.10949158 17.6510742 23.46490407 20.00892378 25.81665039 22.37060547 C28.81513031 25.38052224 31.82906924 28.37438766 34.84786892 31.36390686 C37.17912746 33.67670908 39.50088509 35.99887313 41.82008553 38.32376099 C42.92647603 39.43030384 44.03593385 40.53378932 45.1486187 41.63400269 C53.0105902 49.42026818 60.87192319 57.26605124 61.4375 68.9375 C61.42819432 75.89814693 58.45315305 81.11114078 55 87 C50.25926042 86.12187537 47.75828157 83.15738808 44.48730469 79.82788086 C43.84298492 79.18399918 43.19866516 78.54011749 42.53482056 77.87672424 C40.40665093 75.74646442 38.2893045 73.60577495 36.171875 71.46484375 C34.69851042 69.98588406 33.22448214 68.50758529 31.74981689 67.02992249 C27.86996421 63.13861441 23.99920469 59.23838132 20.13024902 55.33624268 C16.18081054 51.35611852 12.22286791 47.38447135 8.265625 43.41210938 C0.50205388 35.61636182 -7.25194052 27.81116235 -15 20 C-13.32734096 16.45366364 -11.31600367 13.9948079 -8.625 11.125 C-5.35723074 7.56781478 -2.49806099 4.12723119 0 0 Z " fill="#33485C" transform="translate(390,303)"/>
<path d="M0 0 C1.24156357 -0.01268417 2.48312714 -0.02536835 3.76231384 -0.03843689 C5.10920377 -0.03638523 6.45609255 -0.03339701 7.80297852 -0.02954102 C9.19393671 -0.03410584 10.58489265 -0.03941231 11.97584534 -0.04542542 C14.8868223 -0.05434504 17.79752475 -0.05194694 20.70849609 -0.04199219 C24.428728 -0.03050623 28.14801016 -0.05071263 31.86811733 -0.07990932 C34.73958805 -0.09830529 37.6108326 -0.09797218 40.48234749 -0.0922718 C41.85340774 -0.09211899 43.22448371 -0.09813048 44.59548759 -0.11056328 C57.85341549 -0.2138575 57.85341549 -0.2138575 62.74438477 4.40405273 C65.89187988 8.07613037 66.27164991 11.43735329 66.09204102 16.12280273 C65.49250803 20.05681693 64.16895647 22.21382681 61.74438477 25.40405273 C57.529905 27.95781412 54.36658727 28.78336518 49.46704102 28.80810547 C47.63484009 28.82713173 47.63484009 28.82713173 45.765625 28.84654236 C44.45924072 28.84360672 43.15285645 28.84067108 41.80688477 28.83764648 C40.43977602 28.84221293 39.07266956 28.84751988 37.70556641 28.85353088 C34.84764244 28.8624407 31.98999824 28.86006289 29.13208008 28.85009766 C25.48025196 28.83860112 21.82938987 28.8588392 18.1776886 28.88801479 C15.35683115 28.90641003 12.53620392 28.90607801 9.71530151 28.90037727 C7.71788407 28.90015057 5.72048814 28.9170131 3.72314453 28.93418884 C-7.58541904 28.84733831 -7.58541904 28.84733831 -12.25561523 24.40405273 C-15.55360639 19.67693207 -16.15940752 15.0075649 -15.25561523 9.40405273 C-11.82246934 2.53776095 -7.57045969 0.03752617 0 0 Z " fill="#ADADAD" transform="translate(97.255615234375,370.595947265625)"/>
<path d="M0 0 C21.76987743 -1.14578302 40.992928 4.59395665 57.80078125 18.95703125 C70.11733947 30.39852317 79.71549886 45.75861272 80.4375 63 C80.23553951 66.87331375 79.1515033 69.7329024 77 73 C73.4001586 75.39989427 72.24901872 75.64136132 68 75 C58.30793965 70.08626082 54.60675565 60.54906899 50.625 51.0625 C41.9479783 30.52200679 25.29695887 17.43220086 5.48828125 8.25390625 C3.08648498 7.04358191 1.09235978 5.68074802 -1 4 C-0.67 2.68 -0.34 1.36 0 0 Z " fill="#92A2A3" transform="translate(270,159)"/>
<path d="M0 0 C5.88965801 -0.72372916 9.8334066 1.15201158 14.64453125 4.37890625 C19.00412438 9.23012846 18.50548256 15.50360931 18.82666016 21.72265625 C19.80759762 34.61024026 24.94622952 46.55317457 30.21557617 58.18505859 C31 60 31 60 32 63 C26.15699847 67.20286075 19.9876332 70.85931307 13.75 74.4375 C12.96963379 74.89882324 12.18926758 75.36014648 11.38525391 75.83544922 C5.74285482 79.02284179 5.74285482 79.02284179 2.078125 78.91015625 C0 78 0 78 -2 76 C-2.25396729 73.00831604 -2.25396729 73.00831604 -2.25878906 69.11938477 C-2.2622937 68.41190094 -2.26579834 67.70441711 -2.26940918 66.97549438 C-2.27823034 64.63069928 -2.2723755 62.28620457 -2.265625 59.94140625 C-2.26697169 58.31477297 -2.26891226 56.68814008 -2.27142334 55.06150818 C-2.27437524 51.6492836 -2.27007543 48.23716361 -2.26074219 44.82495117 C-2.24935661 40.44882394 -2.25590095 36.07294226 -2.26788712 31.69682407 C-2.27511167 28.33654427 -2.27281489 24.97632274 -2.26763153 21.61604118 C-2.26629621 20.00248117 -2.26793864 18.38891588 -2.27259064 16.77536201 C-2.27766469 14.52010196 -2.26993312 12.26524014 -2.25878906 10.01000977 C-2.25640228 8.08379539 -2.25640228 8.08379539 -2.25396729 6.1186676 C-2 3 -2 3 0 0 Z " fill="#FDFDFD" transform="translate(146,226)"/>
<path d="M0 0 C1.43324639 0.43107092 2.87006931 0.85073684 4.3125 1.25 C5.199375 1.4975 6.08625 1.745 7 2 C4.39065844 5.09319893 2.87765137 6.82600664 -1.15972805 7.62641239 C-2.35671857 7.6269987 -3.55370909 7.62758501 -4.78697205 7.62818909 C-5.45671336 7.63528347 -6.12645468 7.64237786 -6.81649119 7.64968723 C-9.05394979 7.6672474 -11.28966645 7.64917528 -13.52709961 7.63110352 C-15.13385305 7.63624321 -16.74060085 7.64352487 -18.34733582 7.65278625 C-22.70701998 7.67130383 -27.06609272 7.65835909 -31.42575145 7.63869596 C-35.99002336 7.62230815 -40.55425659 7.63112266 -45.11854553 7.63621521 C-52.78445193 7.64073648 -60.45011435 7.62486542 -68.1159668 7.59692383 C-76.97462873 7.56488315 -85.83285037 7.5648831 -94.69154352 7.5821386 C-103.2169451 7.59801228 -111.74218549 7.59126398 -120.26758003 7.57420158 C-123.89386862 7.5673348 -127.52002787 7.56835975 -131.14631462 7.57574654 C-135.41873281 7.58341759 -139.69065109 7.57125675 -143.96298409 7.54389763 C-145.52947125 7.53702083 -147.09600516 7.5369083 -148.66249084 7.54411316 C-150.80422999 7.55282743 -152.94443331 7.53682159 -155.08604431 7.5146637 C-156.28341186 7.51185678 -157.4807794 7.50904985 -158.71443081 7.50615788 C-162.70868374 6.89082383 -164.86482819 5.50933814 -168 3 C-170 0 -170 0 -170 -3 C-149.75446538 -3.2245352 -129.50882596 -3.42537943 -109.262784 -3.59840012 C-99.86115793 -3.67929152 -90.4597209 -3.76779108 -81.05834961 -3.87451172 C-72.85943859 -3.96756286 -64.6605365 -4.04602296 -56.46132439 -4.10732102 C-52.12410428 -4.14024657 -47.78722046 -4.18023353 -43.45025063 -4.2377243 C-39.35864935 -4.29173116 -35.26733093 -4.32605926 -31.17542648 -4.34602928 C-29.68275285 -4.35664961 -28.1901077 -4.37413795 -26.69761086 -4.39944649 C-17.12488281 -4.55670424 -9.0311168 -3.28475071 0 0 Z " fill="#B0ADAD" transform="translate(253,346)"/>
<path d="M0 0 C4.84063945 2.33067825 7.56352878 5.22076799 10 10 C10.65361995 15.22895961 9.87250224 18.59549657 7 23 C4.1756983 26.24794695 2.6197092 27.67508096 -1.58984375 28.51953125 C-6.57706532 28.81370207 -10.10343168 28.50957191 -14.0625 25.3125 C-17.66759457 21.62115915 -18.81508841 18.69502287 -19.375 13.5625 C-18.81504701 8.24294659 -16.3535533 5.51279486 -12.875 1.625 C-8.60915383 -0.78613044 -4.78791163 -0.75315464 0 0 Z " fill="#EEEEEE" transform="translate(60,371)"/>
<path d="M0 0 C4.84063945 2.33067825 7.56352878 5.22076799 10 10 C10.72156543 14.96076234 9.9198536 18.29755227 7.25390625 22.421875 C4.64852381 25.70092331 1.99542803 27.65250176 -2.17578125 28.37890625 C-7.58907236 28.66094327 -10.78996642 27.60860021 -15 24 C-17.89626035 20.70425546 -18.89660298 18.09600845 -19.3125 13.6875 C-18.8527302 8.26221633 -16.4114569 5.57751065 -12.875 1.625 C-8.60915383 -0.78613044 -4.78791163 -0.75315464 0 0 Z " fill="#EEEEEE" transform="translate(60,417)"/>
<path d="M0 0 C4.84063945 2.33067825 7.56352878 5.22076799 10 10 C10.72156543 14.96076234 9.9198536 18.29755227 7.25390625 22.421875 C4.64852381 25.70092331 1.99542803 27.65250176 -2.17578125 28.37890625 C-7.58907236 28.66094327 -10.78996642 27.60860021 -15 24 C-17.89626035 20.70425546 -18.89660298 18.09600845 -19.3125 13.6875 C-18.8527302 8.26221633 -16.4114569 5.57751065 -12.875 1.625 C-8.60915383 -0.78613044 -4.78791163 -0.75315464 0 0 Z " fill="#F3EEEE" transform="translate(60,293)"/>
<path d="M0 0 C4.58978038 -0.0992963 9.17892788 -0.17166748 13.76953125 -0.21972656 C15.32921244 -0.23977222 16.88881913 -0.26701657 18.44824219 -0.30175781 C20.69745314 -0.35059126 22.9456659 -0.37303815 25.1953125 -0.390625 C26.23161301 -0.42159271 26.23161301 -0.42159271 27.28884888 -0.45318604 C32.33745045 -0.45549629 35.09574819 0.87745836 39 4 C42.99394142 8.09904514 43.23802546 11.36072249 43.25 16.875 C43.18603331 18.91736517 43.10898589 20.95954189 43 23 C26.59008069 21.42768394 11.49103047 12.66001621 0 1 C0 0.67 0 0.34 0 0 Z " fill="#F6ACAC" transform="translate(221,293)"/>
<path d="M0 0 C2.75569447 2.18159145 4.43588747 3.87177494 6 7 C6.46153846 12.42307692 6.46153846 12.42307692 4.5 14.875 C4.005 15.24625 3.51 15.6175 3 16 C2.4121875 15.26910156 2.4121875 15.26910156 1.8125 14.5234375 C-0.55615507 12.53254208 -1.94019776 12.59768034 -5 12.625 C-5.86625 12.61726563 -6.7325 12.60953125 -7.625 12.6015625 C-10.39380767 13.06606642 -11.26929299 13.84800246 -13 16 C-15.4915904 12.2626144 -15.45793285 10.42668417 -15 6 C-11.03479076 -0.0799875 -7.0058178 -1.11318694 0 0 Z " fill="#7B7B7B" transform="translate(60,375)"/>
<path d="M0 0 C3.74190139 2.5725572 4.7830505 4.17559189 5.9375 8.5625 C5.9974456 11.8595082 5.820991 13.32207206 4 16 C3.44441406 15.51273437 2.88882813 15.02546875 2.31640625 14.5234375 C-0.39172924 12.74237032 -1.85437654 12.59596721 -5.0625 12.625 C-5.91972656 12.61726563 -6.77695312 12.60953125 -7.66015625 12.6015625 C-10.40312296 13.06864531 -11.28099347 13.86955912 -13 16 C-15.4915904 12.2626144 -15.45793285 10.42668417 -15 6 C-11.00966102 -0.11851977 -7.02851896 -1.0560987 0 0 Z " fill="#7B7B7B" transform="translate(60,421)"/>
<path d="M0 0 C3.74190139 2.5725572 4.7830505 4.17559189 5.9375 8.5625 C5.9974456 11.8595082 5.820991 13.32207206 4 16 C3.44441406 15.51273437 2.88882813 15.02546875 2.31640625 14.5234375 C-0.39172924 12.74237032 -1.85437654 12.59596721 -5.0625 12.625 C-5.91972656 12.61726563 -6.77695312 12.60953125 -7.66015625 12.6015625 C-10.40312296 13.06864531 -11.28099347 13.86955912 -13 16 C-15.4915904 12.2626144 -15.45793285 10.42668417 -15 6 C-11.00966102 -0.11851977 -7.02851896 -1.0560987 0 0 Z " fill="#7B7B7B" transform="translate(60,297)"/>
<path d="M0 0 C1.92154764 0.9063904 3.83706654 1.82556804 5.75 2.75 C7.35101563 3.51570313 7.35101563 3.51570313 8.984375 4.296875 C12.694594 6.39228366 15.50243272 8.23589782 16.6875 12.4375 C15.73136918 16.00126032 13.76929261 17.11751838 10.82421875 19.1796875 C9 20 9 20 6 19 C4.78982923 16.55904728 3.77331225 14.22356988 2.8125 11.6875 C2.53986328 11.01009766 2.26722656 10.33269531 1.98632812 9.63476562 C0.63723811 6.17582054 0 3.75980229 0 0 Z " fill="#FCF9F9" transform="translate(198,253)"/>
<path d="M0 0 C3.125 0.375 3.125 0.375 6 1 C6.6875 3.3125 6.6875 3.3125 7 6 C5.875 7.875 5.875 7.875 4 9 C1.3125 8.6875 1.3125 8.6875 -1 8 C-1.625 5.125 -1.625 5.125 -2 2 C-1.34 1.34 -0.68 0.68 0 0 Z " fill="#EDEDED" transform="translate(53,300)"/>
<path d="M0 0 C2.00720923 0.28674418 4.0085944 0.61866701 6 1 C6.6875 3.3125 6.6875 3.3125 7 6 C5.8125 7.875 5.8125 7.875 4 9 C1.02602384 8.72963853 0.14553974 8.14553974 -2 6 C-1.44444444 1.44444444 -1.44444444 1.44444444 0 0 Z " fill="#EDEDED" transform="translate(53,424)"/>
<path d="M0 0 C1.9375 0.75 1.9375 0.75 3.9375 2.75 C3.57068342 5.68453261 3.07312754 6.61437246 0.9375 8.75 C-1.6875 8.375 -1.6875 8.375 -4.0625 7.75 C-4.3925 5.77 -4.7225 3.79 -5.0625 1.75 C-2.0625 -0.25 -2.0625 -0.25 0 0 Z " fill="#ECECEC" transform="translate(56.0625,378.25)"/>
</svg>
